<svg xmlns="http://www.w3.org/2000/svg" viewBox="0 0 40 40" fill="none"
  stroke="#000000" stroke-width="2.2" stroke-linecap="round" stroke-linejoin="round">
  <!-- Llave inglesa -->
  <path d="M29.5 6.5
           C25.2 6.5 21.8 9.9 21.8 14.2
           C21.8 15.1 21.9 15.9 22.2 16.7
           L8.8 30.1 C7.7 31.2 7.7 33 8.8 34.1
           C9.9 35.2 11.7 35.2 12.8 34.1
           L26.2 20.7 C27 21 27.8 21.1 28.7 21.1
           C33 21.1 36.4 17.7 36.4 13.4
           C36.4 12.6 36.3 11.8 36 11.1
           L31.5 15.6 H28.4 V12.5 L32.9 8
           C31.9 7.1 30.8 6.5 29.5 6.5Z"/>
</svg>