<?xml version="1.0" encoding="UTF-8"?>
<svg version="1.1" xmlns="http://www.w3.org/2000/svg" width="512" height="512">
<path d="M0 0 C6.18398181 0.82878107 12.17629308 2.83816018 17.5625 6 C19.57664012 9.09779346 19.75831252 11.36556374 19.5390625 15.0078125 C19.4615979 16.47637695 19.4615979 16.47637695 19.38256836 17.97460938 C19.3181958 19.01423828 19.25382324 20.05386719 19.1875 21.125 C19.07377248 23.28369562 18.96312768 25.44255572 18.85546875 27.6015625 C18.77498291 29.21272949 18.77498291 29.21272949 18.69287109 30.85644531 C18.40069427 37.90151804 18.48239674 44.95091271 18.5625 52 C19.2225 52 19.8825 52 20.5625 52 C38.20850137 74.03919673 49.1799612 100.15209981 52.5625 128 C53.96604736 128.11275269 53.96604736 128.11275269 55.39794922 128.2277832 C116.05410754 133.16369767 116.05410754 133.16369767 132.5625 147 C132.5625 147.66 132.5625 148.32 132.5625 149 C124.98893168 149.09163814 117.49006083 148.88298087 109.9375 148.3125 C108.96554687 148.25900391 107.99359375 148.20550781 106.9921875 148.15039062 C100.81397297 147.67290765 96.92426587 146.27581201 91.67626953 143.05297852 C88.13261501 141.28769993 85.12639889 141.69034981 81.3125 142.3125 C80.16793335 142.47165894 80.16793335 142.47165894 79.00024414 142.6340332 C63.11475422 145.08942796 48.23369352 150.62122021 33.5625 157 C36.5325 166.24 39.5025 175.48 42.5625 185 C47.1825 184.9175 51.8025 184.835 56.5625 184.75 C81.47765299 184.62714685 101.77551737 191.98062375 120.1875 209.125 C136.4192417 225.99670284 143.25512133 247.75998937 143.03051758 270.77758789 C142.3877039 293.01961592 132.87035165 313.77902893 116.6640625 329.171875 C97.80366727 345.57831546 75.87351667 351.56892318 51.25097656 350.23193359 C29.94834624 348.39416581 10.07150867 337.30729127 -3.8125 321.25390625 C-19.17793977 301.70968978 -24.02988788 280.34905828 -22.4375 256 C-21.69522568 250.48144654 -20.20337491 245.27929386 -18.4375 240 C-18.13714844 239.071875 -17.83679688 238.14375 -17.52734375 237.1875 C-10.19208777 216.86471288 5.93954082 201.97186821 24.5625 192 C24.24442383 191.02389771 24.24442383 191.02389771 23.91992188 190.02807617 C22.96291999 187.08266624 22.01263858 184.1351307 21.0625 181.1875 C20.72863281 180.16333984 20.39476562 179.13917969 20.05078125 178.08398438 C19.73496094 177.10107422 19.41914063 176.11816406 19.09375 175.10546875 C18.65385742 173.74651489 18.65385742 173.74651489 18.20507812 172.36010742 C17.5625 170 17.5625 170 17.5625 167 C9.07640822 171.82975965 2.08004787 177.60342797 -4.82861328 184.45703125 C-6.4375 186 -6.4375 186 -8.29248047 187.51171875 C-14.09767484 192.51572663 -14.95912534 197.61779273 -16.0625 205 C-16.45673993 207.24729758 -16.85776403 209.49341578 -17.265625 211.73828125 C-17.45962891 212.81803223 -17.65363281 213.8977832 -17.85351562 215.01025391 C-21.1832936 232.05726943 -29.34889289 246.86398667 -40.4375 260 C-40.99953125 260.67675781 -41.5615625 261.35351562 -42.140625 262.05078125 C-56.79030889 278.14323703 -79.62471291 284.23594838 -100.6015625 285.24609375 C-114.15617521 285.47334071 -127.27075967 283.76109604 -140.38964844 280.46191406 C-144.62284686 279.39816696 -148.79449972 278.59878522 -153.125 278 C-159.26996981 277.03591879 -162.83189635 274.8464442 -166.9375 270.125 C-169.22628683 268.19697802 -170.28643634 267.99877681 -173.33203125 268.0234375 C-176.3692422 268.44691148 -179.36446179 268.96410235 -182.36816406 269.58105469 C-185.35000729 270.18474074 -188.34555614 270.70213464 -191.3425293 271.22460938 C-192.84252709 271.48773873 -194.34144958 271.75708774 -195.83911133 272.03320312 C-198.75340058 272.56711871 -201.4673096 273 -204.4375 273 C-204.39109375 274.17433594 -204.3446875 275.34867187 -204.296875 276.55859375 C-203.5988295 301.82308149 -211.64867782 322.57301951 -229.0625 341.125 C-245.82808746 357.29916336 -268.1091433 364.57973082 -291.17578125 364.21484375 C-311.73948327 363.46325328 -331.70930566 354.20143488 -346.4375 340 C-364.48297906 320.58529949 -370.41871936 297.97443838 -369.62109375 271.96386719 C-369.20971193 265.3226767 -367.59239004 259.28745876 -365.4375 253 C-365.086875 251.94941406 -364.73625 250.89882813 -364.375 249.81640625 C-356.63971286 229.16211524 -340.13681295 213.73522917 -320.40625 204.65625 C-299.4316749 195.58505411 -276.71099078 196.00056751 -255.4375 204 C-245.90434624 208.03608715 -238.08032472 213.03870105 -230.4375 220 C-229.73109375 220.61359375 -229.0246875 221.2271875 -228.296875 221.859375 C-220.13686681 229.37686286 -214.84803151 239.4340828 -209.4375 249 C-208.25671875 248.6390625 -207.0759375 248.278125 -205.859375 247.90625 C-204.30216995 247.43721233 -202.74487346 246.96847819 -201.1875 246.5 C-200.41019531 246.26152344 -199.63289062 246.02304687 -198.83203125 245.77734375 C-198.07792969 245.55175781 -197.32382813 245.32617188 -196.546875 245.09375 C-195.50998535 244.77954102 -195.50998535 244.77954102 -194.45214844 244.45898438 C-192.4375 244 -192.4375 244 -188.4375 244 C-190.30524618 240.51689353 -192.18303209 237.03929347 -194.0625 233.5625 C-194.84560547 232.10166992 -194.84560547 232.10166992 -195.64453125 230.61132812 C-202.80196975 217.4009941 -209.26598118 208.14190935 -223.78515625 202.59375 C-226.81699853 201.91504598 -229.10889497 202.21020189 -232.1875 202.5625 C-242.26416216 202.89365791 -250.4606869 196.07823676 -258.59423828 190.83007812 C-262.13291676 188.55239189 -265.71426656 186.34895183 -269.30004883 184.14648438 C-271.89597803 182.54959534 -274.48373496 180.94010973 -277.0703125 179.328125 C-281.79027643 176.39319734 -286.53249854 173.4963952 -291.28515625 170.61474609 C-293.24478308 169.42354342 -295.20060154 168.2260505 -297.15234375 167.02197266 C-301.52411591 164.33020579 -305.89054268 161.72281322 -310.4453125 159.3515625 C-320.8206596 153.80506979 -320.8206596 153.80506979 -322.55078125 148.7421875 C-322.80734507 142.30610075 -321.61368437 136.90701663 -317.4375 132 C-313.98359532 129.47938446 -311.12803308 127.9774929 -306.796875 128.03515625 C-301.83412485 129.46050426 -297.8802984 132.15575475 -293.5625 134.9375 C-292.6444458 135.51781982 -291.7263916 136.09813965 -290.78051758 136.69604492 C-288.9044638 137.88238501 -287.03083662 139.07257123 -285.15966797 140.26660156 C-281.16553564 142.8099504 -277.14466032 145.30978841 -273.125 147.8125 C-270.89504504 149.20707912 -268.66624519 150.60348781 -266.4375 152 C-276.06785217 130.79376996 -300.53604542 115.90770531 -321.38818359 107.74316406 C-328.53795768 105.15037012 -335.97820717 103.43285851 -343.4375 102 C-343.4375 101.67 -343.4375 101.34 -343.4375 101 C-326.32509858 100.8291664 -309.3304692 101.20886045 -292.25 102.25 C-291.14028839 102.31558105 -290.03057678 102.38116211 -288.88723755 102.44873047 C-273.85392909 103.3437028 -258.85632259 104.45881634 -243.875 106 C-243.11313385 106.07754517 -242.3512677 106.15509033 -241.5663147 106.23498535 C-233.12959587 107.10710131 -224.73797949 108.19780106 -216.35546875 109.4921875 C-215.19911171 109.66838623 -215.19911171 109.66838623 -214.01939392 109.84814453 C-201.51206622 111.8446521 -189.83724873 116.195515 -178 120.5625 C-149.5266776 131.0615 -121.65900466 133.98447815 -93.4375 121 C-86.75100266 117.63350649 -80.32225253 113.78261323 -73.953125 109.85546875 C-59.6849115 101.25837697 -43.65866863 94.68936191 -26.76953125 98.62109375 C-23.6890039 99.70404781 -21.15188954 101.19040697 -18.4375 103 C-17.58098074 100.32337731 -17.46613493 98.48457134 -17.625 95.625 C-17.33332872 89.98602194 -14.51409089 87.17912336 -10.8125 83.125 C-8.4375 81 -8.4375 81 -6.4375 81 C-6.71840692 77.49905079 -7.01419602 73.99950636 -7.3125 70.5 C-7.39113281 69.51773438 -7.46976562 68.53546875 -7.55078125 67.5234375 C-8.04364206 61.83658204 -8.58973432 56.41928592 -10.4375 51 C-12.08767811 49.447959 -12.08767811 49.447959 -14.1875 48.875 C-18.5764191 47.04428511 -21.6615089 44.91291578 -24.4375 41 C-26.00166423 37.08958942 -25.73570715 34.87681805 -24.390625 30.921875 C-22.96381383 27.68470127 -21.52843634 24.8549323 -19.4375 22 C-15.6875 20.6875 -15.6875 20.6875 -12.4375 21 C-11.7775 21.33 -11.1175 21.66 -10.4375 22 C-10.36233154 21.44014404 -10.28716309 20.88028809 -10.2097168 20.3034668 C-9.86114657 17.76282987 -9.49330854 15.2253474 -9.125 12.6875 C-9.00705078 11.80642578 -8.88910156 10.92535156 -8.76757812 10.01757812 C-8.57905273 8.74624023 -8.57905273 8.74624023 -8.38671875 7.44921875 C-8.27674561 6.66893311 -8.16677246 5.88864746 -8.0534668 5.0847168 C-6.7475369 0.66484546 -4.39027048 -0.46137489 0 0 Z M3.1328125 41.80859375 C1.5625 43 1.5625 43 -1.4375 44 C-1.23253906 45.05316406 -1.02757812 46.10632813 -0.81640625 47.19140625 C0.9997504 56.81288594 2.1493722 66.21314488 2.5625 76 C4.2125 75.34 5.8625 74.68 7.5625 74 C8.61898755 66.28847276 8.67874053 58.71334179 8.625 50.9375 C8.62048828 49.69033203 8.61597656 48.44316406 8.61132812 47.15820312 C8.59963163 44.10541779 8.58324086 41.05273502 8.5625 38 C6.28597829 38 4.76226709 40.37156219 3.1328125 41.80859375 Z M-114.4375 192 C-130.31255657 210.93155076 -136.7516612 237.81693305 -138.4375 262 C-135.93895233 262.65192688 -133.4388863 263.29663064 -130.9375 263.9375 C-129.89335937 264.21110352 -129.89335937 264.21110352 -128.828125 264.49023438 C-107.88396527 269.82323801 -85.07074276 268.1871212 -66.01171875 257.66015625 C-48.80503022 246.93197912 -39.63100082 228.93869706 -34.81640625 209.76953125 C-34.30467333 207.53621864 -33.80338104 205.30048829 -33.3125 203.0625 C-33.06346924 201.99612305 -32.81443848 200.92974609 -32.55786133 199.83105469 C-31.35145245 193.86137033 -30.99458723 189.88467123 -34.25732422 184.59350586 C-39.76880172 177.15175706 -47.39075626 173.19650042 -56.37890625 171.41796875 C-78.04875043 168.45670013 -99.58120997 175.9319408 -114.4375 192 Z M51.5625 212 C52.88298627 218.45103286 54.64341025 224.54090551 56.8203125 230.75 C57.452345 232.5935711 58.08383923 234.4373268 58.71484375 236.28125 C59.7009336 239.14665908 60.69114456 242.01042823 61.69091797 244.87109375 C62.66310223 247.65996666 63.61783289 250.45434619 64.5703125 253.25 C64.8702713 254.09401367 65.1702301 254.93802734 65.47927856 255.80761719 C67.29808461 261.1952055 68.36692231 266.29752482 67.5625 272 C66 274.0625 66 274.0625 63.5625 275 C57.58577562 275.74709055 57.58577562 275.74709055 54.55078125 273.53125 C51.77718859 270.00023223 50.63010217 266.30094892 49.25 262.0625 C48.95440186 261.18658203 48.65880371 260.31066406 48.35424805 259.40820312 C47.41249863 256.60906623 46.48730001 253.80477667 45.5625 251 C44.94118969 249.14416748 44.31880431 247.28869451 43.6953125 245.43359375 C42.2285893 241.0614954 40.77431344 236.68541303 39.32617188 232.30712891 C38.26422223 229.09887311 37.19480397 225.893145 36.125 222.6875 C35.60416667 221.125 35.08333333 219.5625 34.5625 218 C29.58513035 219.51697438 26.31068701 221.50399488 22.5625 225.0625 C22.037771 225.55492187 21.51304199 226.04734375 20.97241211 226.5546875 C9.81697946 237.29554257 3.65897771 251.32813212 3.25 266.75 C3.55024929 283.17540249 9.2114957 296.70684421 20.71484375 308.3046875 C32.64391268 319.59557579 47.10862546 324.59517084 63.44140625 324.27734375 C80.45354127 323.46800904 93.26389294 314.98605272 104.5703125 302.84375 C114.58244652 290.88120027 117.55137621 276.31773108 116.75341797 261.14990234 C115.335615 245.18420805 106.5713248 232.097606 94.5625 222 C84.32689944 214.53827493 64.36718049 205.59765976 51.5625 212 Z M-327.6171875 240.953125 C-338.76452085 252.31733254 -343.83606598 267.30952968 -343.73657227 282.91918945 C-343.3162791 298.35098354 -336.89145987 311.42798189 -326.23046875 322.4921875 C-314.8674233 332.69508985 -300.71604243 338.15771399 -285.4375 338 C-269.04535111 336.8736683 -255.63087729 330.47599467 -244.27734375 318.7734375 C-234.62788852 307.10926085 -229.70826445 293.06333068 -230.4375 278 C-238.24081988 278.58067861 -245.86370811 279.64783177 -253.5625 281.03125 C-255.22647827 281.32521667 -255.22647827 281.32521667 -256.92407227 281.62512207 C-259.24713021 282.03648497 -261.5697999 282.45004602 -263.89208984 282.86572266 C-267.45448087 283.50303789 -271.01812986 284.13291012 -274.58203125 284.76171875 C-276.84643103 285.16362971 -279.1107567 285.56595844 -281.375 285.96875 C-282.44057129 286.15731567 -283.50614258 286.34588135 -284.60400391 286.54016113 C-285.58933105 286.71704468 -286.5746582 286.89392822 -287.58984375 287.07617188 C-288.8890979 287.3081427 -288.8890979 287.3081427 -290.21459961 287.5447998 C-292.59506655 287.9861448 -292.59506655 287.9861448 -295.4375 289 C-295.52837891 288.00419922 -295.52837891 288.00419922 -295.62109375 286.98828125 C-295.70488281 286.10527344 -295.78867187 285.22226562 -295.875 284.3125 C-295.95621094 283.44238281 -296.03742188 282.57226562 -296.12109375 281.67578125 C-296.42847674 279.0763078 -296.91000309 276.56239604 -297.4375 274 C-296.85049316 273.89301285 -296.26348633 273.7860257 -295.65869141 273.67579651 C-288.92818505 272.3959184 -282.3919838 270.6771795 -275.8125 268.77734375 C-274.74378662 268.47180069 -273.67507324 268.16625763 -272.57397461 267.85145569 C-270.33474633 267.21038994 -268.09606402 266.56741428 -265.85791016 265.92260742 C-262.42090295 264.93271991 -258.98209357 263.94929909 -255.54296875 262.96679688 C-253.3618714 262.34152163 -251.18087799 261.71588366 -249 261.08984375 C-247.96987793 260.79504623 -246.93975586 260.50024872 -245.87841797 260.19651794 C-244.9298291 259.92275833 -243.98124023 259.64899872 -243.00390625 259.36694336 C-242.16802979 259.12648788 -241.33215332 258.88603241 -240.47094727 258.63829041 C-238.39963924 258.04724311 -238.39963924 258.04724311 -236.4375 257 C-238.03890636 251.87549965 -241.05768665 248.07630417 -244.4375 244 C-245.04207031 243.26265625 -245.64664063 242.5253125 -246.26953125 241.765625 C-256.0720392 230.89477489 -270.77378056 225.00914178 -285.19921875 224.0390625 C-301.62093048 223.84097189 -315.55013336 230.14035248 -327.6171875 240.953125 Z " fill="#000000" transform="translate(369.4375,74)"/>
<path d="M0 0 C24.75 0 49.5 0 75 0 C72.39216408 18.25485146 62.02639349 33.25276812 47.625 44.4375 C30.44190671 56.21110096 9.00826599 56.91156374 -11 54 C-12.06138904 50.73958585 -11.90970665 48.59584613 -11.11962891 45.27905273 C-10.9025528 44.34806259 -10.68547668 43.41707245 -10.46182251 42.45787048 C-10.21918671 41.45985916 -9.9765509 40.46184784 -9.7265625 39.43359375 C-9.48336273 38.40315445 -9.24016296 37.37271515 -8.98959351 36.31105042 C-8.20996115 33.017764 -7.4174761 29.72771667 -6.625 26.4375 C-6.09814842 24.21698888 -5.57209711 21.99628773 -5.046875 19.77539062 C-4.08232496 15.71298011 -3.1164667 11.65091514 -2.13916016 7.59155273 C-1.94295074 6.77532944 -1.74674133 5.95910614 -1.54458618 5.1181488 C-1.10084522 3.39223393 -0.56353245 1.69059734 0 0 Z " fill="#000000" transform="translate(253,278)"/>
</svg>
